<?xml version="1.0" encoding="utf-8"?>
<!-- Generator: Adobe Illustrator 27.5.0, SVG Export Plug-In . SVG Version: 6.00 Build 0)  -->
<svg version="1.1" xmlns="http://www.w3.org/2000/svg" xmlns:xlink="http://www.w3.org/1999/xlink" x="0px" y="0px"
	 viewBox="0 0 500 500" style="enable-background:new 0 0 500 500;" xml:space="preserve">
<g id="BACKGROUND">
	<rect style="fill:#FFFFFF;" width="500" height="500"/>
</g>
<g id="OBJECTS">
	<circle style="fill:#CEE0DD;" cx="247.582" cy="250" r="216.087"/>
	<path style="opacity:0.84;fill:#DBE5FF;" d="M66.701,289.426c-0.907,0.262-1.746,0.648-2.479,1.184
		c-2.684,1.962-2.509,5.497-0.698,7.999c2.065,2.853,5.741,3.631,9.057,2.956c2.84-0.578,5.481-2.089,7.42-4.242
		c1.144-1.271,2.068-3.132,1.255-4.635c-0.456-0.844-1.353-1.344-2.228-1.737C75.734,289.472,70.596,288.301,66.701,289.426z"/>
	<g>
		<path style="fill:#3C42B5;" d="M149.659,372.913L149.659,372.913c-1.472,2.47-4.668,3.279-7.138,1.807l-67.96-40.497
			c-2.47-1.472-3.279-4.668-1.807-7.138l0,0c1.472-2.47,4.667-3.279,7.138-1.807l67.96,40.497
			C150.321,367.247,151.13,370.442,149.659,372.913z"/>
		
			<ellipse transform="matrix(0.4138 -0.9104 0.9104 0.4138 -255.5025 246.8267)" style="fill:#5A78DB;" cx="63.918" cy="321.819" rx="36.687" ry="36.687"/>
		
			<ellipse transform="matrix(0.9335 -0.3585 0.3585 0.9335 -111.1193 44.3031)" style="fill:#FFFFFF;" cx="63.917" cy="321.819" rx="28.953" ry="28.952"/>
		<g>
			<path style="fill:#DBE5FF;" d="M43.757,331.092c-3.566-2.125-6.503-4.9-8.764-8.079c0.398,9.432,5.388,18.484,14.103,23.677
				c13.736,8.185,31.507,3.686,39.692-10.051c6.06-10.17,5.161-22.548-1.286-31.614c0.229,5.434-1.061,10.994-4.053,16.015
				C75.264,334.778,57.494,339.277,43.757,331.092z"/>
		</g>
	</g>
	<g>
		<path style="fill:#FABA41;" d="M380.444,221.779c4.33-2.093,9.09-3.112,13.606-4.767c6.461-2.367,12.536-6.156,16.745-11.599
			c4.209-5.443,6.374-12.657,4.907-19.379c-1.441-6.606-6.103-12.042-11.176-16.512c-2.6-2.291-5.766-3.532-8.869-5.073
			c-7.792-3.869-17.261-2.767-24.805,1.564c-7.544,4.331-12.548,10.871-13.135,19.551c-0.485,7.173,1.937,14.443,0.528,21.492
			c-0.626,3.134-1.987,6.072-2.844,9.151c-0.857,3.079-1.172,6.504,0.241,9.371c1.966,3.987,8.856,7.51,13.277,6.003
			c2.008-0.684,3.011-2.725,4.312-4.252C375.242,224.969,377.649,223.13,380.444,221.779z"/>
		<path style="fill:none;stroke:#FFFFFF;stroke-width:1.5748;stroke-miterlimit:10;" d="M364.967,228.558
			c2.964-7.634,6.413-15.171,11.396-21.67c1.537-2.004,3.336-3.985,5.738-4.764c0.288-0.093,0.602-0.168,0.89-0.076
			c0.606,0.193,0.767,0.981,0.699,1.614c-0.134,1.233-0.734,2.371-1.469,3.37c-1.579,2.144-3.941,3.815-6.588,4.106
			c-2.647,0.291-5.521-1.011-6.665-3.416c-1.31-2.754-0.174-6.01,1.141-8.762c0.792-1.657,1.902-3.475,3.717-3.754
			c0.837,2.788,0.388,5.808-0.462,8.592c-2.538,8.314-8.4,15.15-14.316,21.52c0.183-0.274,0.367-0.548,0.55-0.822"/>
		<path style="fill:#FAE54B;" d="M380.672,170.957c1.97,1.165,2.538,3.913,1.811,6.083c-0.727,2.171-2.446,3.854-4.235,5.282
			c-1.153,0.921-2.388,1.79-3.802,2.212c-1.414,0.422-3.046,0.338-4.238-0.532c-0.555-0.405-0.991-0.96-1.312-1.568
			c-1.046-1.981-0.84-4.472,0.197-6.458C370.919,172.478,376.691,168.604,380.672,170.957z"/>
		<g>
			<path style="fill:#E09F26;" d="M385.377,215.415c4.298-3.321,9.608-5.066,14.124-8.084c2.839-1.898,5.344-4.293,7.366-7.045
				c1.794-2.442,2.444-5.46,3.76-8.19c6.493-13.462-8.135-23.283-9.152-24.796c1.068,0.621,2.092,1.315,3.04,2.15
				c5.073,4.47,9.735,9.906,11.176,16.512c1.467,6.723-0.698,13.936-4.907,19.38c-4.209,5.443-10.285,9.232-16.745,11.599
				c-4.516,1.655-9.276,2.674-13.606,4.767c-0.536,0.259-1.054,0.542-1.562,0.838C380.708,219.863,382.801,217.405,385.377,215.415z
				"/>
		</g>
		<path style="fill:#5A78DB;" d="M368.649,228.46c0.662,0.339,1.385,0.711,1.686,1.391c0.479,1.085-0.352,2.269-1.131,3.164
			c-0.926,1.063-1.919,2.171-3.259,2.607c-0.479,0.156-0.995,0.223-1.429,0.479c-0.556,0.327-0.901,0.918-1.398,1.33
			c-1.535,1.271-3.857,0.472-5.561-0.563c-1.678-1.019-3.244-2.222-4.661-3.58c-1.079-1.034-2.123-2.266-2.275-3.753
			c-0.099-0.964,0.191-1.947,0.013-2.9c-0.159-0.849-0.685-1.677-0.475-2.514c0.121-0.484,0.471-0.874,0.683-1.326
			c0.348-0.741,0.304-1.598,0.432-2.406c0.21-1.325,1.403-4.017,3.098-3.744c1.459,0.236,3.063,3.166,4.046,4.19
			C361.376,223.917,364.846,226.51,368.649,228.46z"/>
		
			<path style="fill:none;stroke:#605BB5;stroke-width:1.0498;stroke-linecap:round;stroke-linejoin:round;stroke-miterlimit:10;" d="
			M367.591,232.838c-2.464-1.287-4.927-2.6-7.165-4.249c-2.237-1.649-4.255-3.658-5.602-6.089"/>
		
			<path style="fill:none;stroke:#605BB5;stroke-width:1.0498;stroke-linecap:round;stroke-linejoin:round;stroke-miterlimit:10;" d="
			M363.605,235.305c-3.404-1.659-6.473-3.998-8.975-6.841c-0.773-0.879-1.527-1.892-1.571-3.062"/>
	</g>
	<g>
		
			<rect x="77.783" y="152.842" transform="matrix(0.7573 -0.653 0.653 0.7573 -109.6783 127.4706)" style="fill:#FFFFFF;" width="77.776" height="116.929"/>
		
			<rect x="73.957" y="166.239" transform="matrix(0.7573 -0.653 0.653 0.7573 -119.3557 128.2232)" style="fill:#FABA41;" width="77.776" height="116.929"/>
		<polygon style="fill:#FFFFFF;" points="104.116,155.031 107.942,141.634 184.301,230.187 180.475,243.584 		"/>
		
			<rect x="75.041" y="189.867" transform="matrix(0.7573 -0.653 0.653 0.7573 -144.6157 112.3717)" style="fill:#E09F26;" width="7.697" height="121.8"/>
		<path style="fill:#FFFFFF;" d="M37.287,202.56l69.838-60.221l-3.009,12.692l-61.835,53.321c-1.599,1.379-4.014,1.2-5.393-0.399v0
			C35.509,206.354,35.688,203.939,37.287,202.56z"/>
		
			<line style="fill:none;stroke:#C3D2E3;stroke-width:1.8763;stroke-linecap:round;stroke-linejoin:round;stroke-miterlimit:10;" x1="44.265" y1="199.466" x2="73.223" y2="174.495"/>
		
			<line style="fill:none;stroke:#C3D2E3;stroke-width:1.8763;stroke-linecap:round;stroke-linejoin:round;stroke-miterlimit:10;" x1="80.475" y1="170.368" x2="100.421" y2="153.168"/>
		
			<line style="fill:none;stroke:#C3D2E3;stroke-width:1.8763;stroke-linecap:round;stroke-linejoin:round;stroke-miterlimit:10;" x1="46.868" y1="200.934" x2="66.883" y2="183.675"/>
		
			<line style="fill:none;stroke:#C3D2E3;stroke-width:1.8763;stroke-linecap:round;stroke-linejoin:round;stroke-miterlimit:10;" x1="108.878" y1="153.848" x2="138.623" y2="188.342"/>
		
			<line style="fill:none;stroke:#C3D2E3;stroke-width:1.8763;stroke-linecap:round;stroke-linejoin:round;stroke-miterlimit:10;" x1="113.777" y1="152.296" x2="172.385" y2="220.262"/>
		
			<line style="fill:none;stroke:#C3D2E3;stroke-width:1.8763;stroke-linecap:round;stroke-linejoin:round;stroke-miterlimit:10;" x1="138.063" y1="185.482" x2="179.155" y2="233.135"/>
		
			<line style="fill:none;stroke:#C3D2E3;stroke-width:1.8763;stroke-linecap:round;stroke-linejoin:round;stroke-miterlimit:10;" x1="138.446" y1="192.529" x2="171.373" y2="230.713"/>
		
			<rect x="67.18" y="194.513" transform="matrix(0.7573 -0.653 0.653 0.7573 -109.7496 109.4377)" style="fill:#FFFFFF;" width="50.383" height="15.745"/>
	</g>
	<g>
		
			<rect x="372.537" y="259.016" transform="matrix(0.8473 0.5311 -0.5311 0.8473 234.5121 -169.9129)" style="fill:#C1C9D9;" width="80.456" height="127.772"/>
		
			<rect x="371.386" y="251.608" transform="matrix(0.8473 0.5311 -0.5311 0.8473 230.4031 -170.4331)" style="fill:#DCE1F7;" width="80.456" height="127.772"/>
		
			<rect x="363.253" y="236.785" transform="matrix(0.8473 0.5311 -0.5311 0.8473 221.6348 -169.5802)" style="fill:#FFFFFF;" width="84.989" height="127.772"/>
		<path style="fill:#DFE3F5;" d="M456.434,281.159c-2.438,3.889-7.566,5.065-11.455,2.628c-3.889-2.438-5.065-7.566-2.628-11.455
			c2.437-3.889,7.566-5.065,11.455-2.628C457.695,272.141,458.872,277.27,456.434,281.159z"/>
		
			<text transform="matrix(0.8473 0.5311 -0.5311 0.8473 394.2614 246.1511)" style="fill:#6961C2; font-family:'RobotoCondensed-Regular'; font-size:9.3041px;">Lorem ipsum</text>
		<g>
			<path style="fill:#FFB52B;" d="M447.659,271.817c0.481,1.971,0.355,4.111-0.263,6.121l-1.009-0.868
				c1.688-1.143,3.55-2.044,5.501-2.677c0.979-0.303,1.974-0.56,2.983-0.751c1.012-0.17,2.032-0.289,3.056-0.337
				c2.048-0.089,4.103,0.099,6.085,0.561c0.987,0.247,1.961,0.539,2.894,0.931c0.474,0.17,0.923,0.412,1.375,0.629
				c0.211,0.118,0.479,0.185,0.677,0.455c0.098,0.116,0.112,0.363-0.033,0.456c-0.1,0.093-0.328,0.112-0.35-0.044
				c0.069,0.126,0.216,0.036,0.261-0.042c0.057-0.086,0.004-0.149-0.066-0.209c-0.147-0.101-0.398-0.129-0.644-0.177
				c-0.491-0.076-0.962-0.203-1.45-0.264c-0.968-0.144-1.924-0.292-2.889-0.347c-1.919-0.164-3.836-0.153-5.73,0.02
				c-0.948,0.068-1.891,0.205-2.823,0.385c-0.937,0.152-1.864,0.366-2.779,0.624c-1.834,0.499-3.629,1.164-5.36,2.004l-0.103,0.05
				c-0.338,0.164-0.746,0.023-0.91-0.315c-0.096-0.197-0.086-0.421,0.004-0.603C446.938,275.721,447.444,273.825,447.659,271.817z"
				/>
		</g>
		<path style="fill:#DFE3F5;" d="M443.472,301.838c-2.438,3.889-7.566,5.065-11.455,2.628c-3.889-2.437-5.065-7.566-2.628-11.455
			c2.437-3.889,7.566-5.065,11.455-2.628C444.733,292.821,445.91,297.949,443.472,301.838z"/>
		
			<text transform="matrix(0.8473 0.5311 -0.5311 0.8473 381.299 266.8315)" style="fill:#6961C2; font-family:'RobotoCondensed-Regular'; font-size:9.3041px;">Lorem ipsum</text>
		<g>
			<path style="fill:#FFB52B;" d="M434.697,292.497c0.481,1.971,0.355,4.111-0.263,6.12l-1.009-0.868
				c1.688-1.143,3.55-2.043,5.501-2.677c0.979-0.303,1.974-0.561,2.982-0.751c1.012-0.17,2.032-0.289,3.056-0.337
				c2.048-0.089,4.103,0.099,6.085,0.561c0.987,0.247,1.961,0.539,2.894,0.931c0.474,0.17,0.923,0.412,1.375,0.629
				c0.211,0.119,0.479,0.185,0.677,0.455c0.098,0.116,0.112,0.363-0.033,0.456c-0.1,0.092-0.328,0.112-0.35-0.044
				c0.069,0.126,0.216,0.036,0.261-0.042c0.057-0.086,0.004-0.149-0.066-0.208c-0.147-0.101-0.398-0.129-0.644-0.177
				c-0.491-0.077-0.962-0.203-1.45-0.264c-0.968-0.144-1.924-0.292-2.889-0.346c-1.919-0.164-3.835-0.153-5.73,0.02
				c-0.948,0.068-1.891,0.204-2.823,0.384c-0.937,0.152-1.864,0.366-2.779,0.624c-1.834,0.499-3.629,1.164-5.36,2.004l-0.103,0.05
				c-0.338,0.164-0.746,0.023-0.91-0.315c-0.096-0.197-0.086-0.421,0.004-0.603C433.976,296.4,434.482,294.505,434.697,292.497z"/>
		</g>
		<path style="fill:#DFE3F5;" d="M429.511,324.112c-2.437,3.889-7.566,5.065-11.454,2.628c-3.889-2.437-5.065-7.566-2.628-11.455
			c2.437-3.889,7.566-5.065,11.455-2.628C430.772,315.095,431.948,320.224,429.511,324.112z"/>
		
			<text transform="matrix(0.8473 0.5311 -0.5311 0.8473 367.3379 289.1053)" style="fill:#6961C2; font-family:'RobotoCondensed-Regular'; font-size:9.3041px;">Lorem ipsum</text>
		<g>
			<path style="fill:#FFB52B;" d="M420.736,314.771c0.481,1.971,0.355,4.111-0.263,6.121l-1.009-0.868
				c1.688-1.143,3.55-2.044,5.501-2.677c0.979-0.303,1.974-0.56,2.982-0.751c1.012-0.17,2.032-0.289,3.056-0.337
				c2.048-0.089,4.103,0.099,6.084,0.561c0.987,0.247,1.961,0.539,2.894,0.931c0.474,0.17,0.923,0.412,1.375,0.629
				c0.211,0.118,0.479,0.185,0.678,0.455c0.098,0.116,0.112,0.362-0.033,0.456c-0.1,0.093-0.328,0.112-0.35-0.044
				c0.069,0.127,0.216,0.036,0.261-0.042c0.057-0.086,0.004-0.149-0.066-0.209c-0.147-0.101-0.398-0.129-0.644-0.177
				c-0.491-0.076-0.962-0.203-1.45-0.264c-0.968-0.144-1.924-0.292-2.889-0.346c-1.919-0.164-3.836-0.153-5.73,0.02
				c-0.948,0.068-1.891,0.205-2.823,0.384c-0.937,0.152-1.864,0.366-2.779,0.624c-1.834,0.499-3.629,1.164-5.36,2.004l-0.103,0.05
				c-0.338,0.164-0.746,0.023-0.91-0.315c-0.096-0.197-0.086-0.421,0.004-0.603C420.015,318.675,420.521,316.779,420.736,314.771z"
				/>
		</g>
		<path style="fill:#DFE3F5;" d="M415.55,346.387c-2.437,3.889-7.566,5.065-11.455,2.628c-3.889-2.438-5.065-7.566-2.628-11.455
			c2.438-3.889,7.566-5.065,11.455-2.628C416.81,337.37,417.987,342.498,415.55,346.387z"/>
		
			<text transform="matrix(0.8473 0.5311 -0.5311 0.8473 353.3761 311.3803)" style="fill:#6961C2; font-family:'RobotoCondensed-Regular'; font-size:9.3041px;">Lorem ipsum</text>
		<g>
			<path style="fill:#FFB52B;" d="M406.774,337.046c0.481,1.971,0.355,4.111-0.263,6.12l-1.009-0.868
				c1.688-1.143,3.55-2.043,5.501-2.677c0.98-0.303,1.974-0.56,2.983-0.751c1.012-0.17,2.032-0.289,3.056-0.337
				c2.048-0.089,4.103,0.099,6.085,0.561c0.987,0.247,1.961,0.539,2.894,0.931c0.474,0.17,0.923,0.412,1.375,0.629
				c0.211,0.119,0.479,0.185,0.678,0.455c0.098,0.116,0.112,0.363-0.033,0.456c-0.1,0.092-0.328,0.112-0.35-0.044
				c0.069,0.127,0.216,0.036,0.261-0.042c0.057-0.086,0.004-0.149-0.066-0.209c-0.146-0.101-0.398-0.129-0.644-0.177
				c-0.491-0.076-0.962-0.203-1.45-0.264c-0.968-0.144-1.924-0.292-2.889-0.346c-1.919-0.164-3.836-0.153-5.73,0.02
				c-0.948,0.068-1.891,0.205-2.823,0.384c-0.937,0.152-1.864,0.366-2.779,0.624c-1.834,0.499-3.629,1.164-5.36,2.004l-0.103,0.05
				c-0.338,0.164-0.746,0.023-0.91-0.315c-0.096-0.197-0.086-0.421,0.004-0.603C406.053,340.949,406.56,339.053,406.774,337.046z"/>
		</g>
	</g>
	<g>
		<g>
			<path style="fill:#5867CC;" d="M132.414,360.674V210.52c0-4.379,3.55-7.93,7.93-7.93h210.443c4.38,0,7.93,3.55,7.93,7.93v150.155
				c0,4.379-3.55,7.93-7.93,7.93H140.344C135.964,368.604,132.414,365.054,132.414,360.674z"/>
			<path style="fill:#FFFFFF;" d="M346.962,361.612H144.169c-3.584,0-6.489-2.905-6.489-6.489V216.071
				c0-3.584,2.905-6.489,6.489-6.489h202.793c3.584,0,6.489,2.905,6.489,6.489v139.052
				C353.45,358.707,350.545,361.612,346.962,361.612z"/>
			<path style="fill:#6868E3;" d="M359.334,348.063H131.796L93.22,406.269l0,0c0,8.124,6.586,9.146,14.71,9.146h275.272
				c8.124,0,14.71-1.022,14.71-9.146l0,0L359.334,348.063z"/>
			<polygon style="fill:#8F96E3;" points="359.334,348.063 131.796,348.063 93.22,406.269 397.911,406.269 			"/>
			<path style="fill:#6868E3;" d="M127.227,377.166c1.288-1.991,13.712-23.792,13.712-23.792l210.933-1.096l9.003,24.888H127.227z"
				/>
			<path style="fill:#6868E3;" d="M192.56,399.235c0.551-1.428,8.457-17.09,8.457-17.09l85.379-0.764l6.006,17.854H192.56z"/>
		</g>
		<g>
			<g>
				<path style="fill:#3C42B5;" d="M311.714,307.517c-0.173,0.347,0,23.481,0,23.481l8.144-8.578l8.665,8.578l-0.347-23.481H311.714
					z"/>
				
					<ellipse transform="matrix(0.7071 -0.7071 0.7071 0.7071 -118.521 314.2558)" style="fill:#E09F26;" cx="320.08" cy="300.195" rx="16.159" ry="16.159"/>
				<path style="fill:#FAE54B;" d="M321.3,288.802l0.832-1.498c0.706-1.27,2.64-0.752,2.616,0.701l-0.028,1.714
					c-0.018,1.095,1.174,1.784,2.113,1.22l1.47-0.881c1.246-0.747,2.662,0.669,1.915,1.915l-0.881,1.47
					c-0.563,0.939,0.125,2.132,1.22,2.113l1.713-0.028c1.453-0.024,1.971,1.91,0.701,2.616l-1.498,0.832
					c-0.957,0.532-0.957,1.909,0,2.44l1.498,0.832c1.27,0.706,0.752,2.64-0.701,2.616l-1.713-0.028
					c-1.095-0.018-1.784,1.174-1.22,2.114l0.881,1.47c0.747,1.246-0.669,2.662-1.915,1.915l-1.47-0.881
					c-0.939-0.563-2.132,0.125-2.113,1.22l0.028,1.714c0.024,1.453-1.91,1.971-2.616,0.701l-0.832-1.498
					c-0.532-0.957-1.909-0.957-2.44,0l-0.832,1.498c-0.706,1.27-2.64,0.752-2.616-0.701l0.028-1.714
					c0.018-1.095-1.174-1.783-2.113-1.22l-1.47,0.881c-1.246,0.747-2.662-0.669-1.915-1.915l0.882-1.47
					c0.563-0.939-0.125-2.132-1.22-2.114l-1.714,0.028c-1.453,0.024-1.971-1.91-0.701-2.616l1.498-0.832
					c0.957-0.532,0.957-1.909,0-2.44l-1.498-0.832c-1.27-0.706-0.752-2.64,0.701-2.616l1.714,0.028
					c1.095,0.018,1.783-1.174,1.22-2.113l-0.882-1.47c-0.747-1.246,0.669-2.662,1.915-1.915l1.47,0.881
					c0.939,0.563,2.132-0.125,2.113-1.22l-0.028-1.714c-0.024-1.452,1.91-1.971,2.616-0.701l0.832,1.498
					C319.391,289.759,320.768,289.759,321.3,288.802z"/>
			</g>
			
				<text transform="matrix(1 0 0 1 189.8813 243.5117)" style="fill:#6961C2; font-family:'RobotoCondensed-Bold'; font-size:20.6646px;">CERTIFICATE</text>
			
				<text transform="matrix(1 0 0 1 205.8223 258.3301)" style="fill:#6961C2; font-family:'RobotoCondensed-Regular'; font-size:12.0911px;">OF EXCELLENCE</text>
			
				<line style="fill:none;stroke:#605BB5;stroke-width:1.5896;stroke-linecap:round;stroke-linejoin:round;stroke-miterlimit:10;" x1="164.82" y1="322.665" x2="214.334" y2="322.665"/>
			
				<line style="fill:none;stroke:#605BB5;stroke-width:1.5896;stroke-linecap:round;stroke-linejoin:round;stroke-miterlimit:10;" x1="233.815" y1="322.665" x2="283.329" y2="322.665"/>
			
				<line style="fill:none;stroke:#605BB5;stroke-width:1.5896;stroke-linecap:round;stroke-linejoin:round;stroke-miterlimit:10;" x1="168.181" y1="271.267" x2="309.417" y2="271.267"/>
			
				<line style="fill:none;stroke:#605BB5;stroke-width:1.5896;stroke-linecap:round;stroke-linejoin:round;stroke-miterlimit:10;" x1="168.181" y1="284.036" x2="288.605" y2="284.036"/>
			
				<line style="fill:none;stroke:#605BB5;stroke-width:1.5896;stroke-linecap:round;stroke-linejoin:round;stroke-miterlimit:10;" x1="170.096" y1="295.385" x2="280.082" y2="295.385"/>
		</g>
	</g>
	<g>
		<path style="fill:#3C42B5;" d="M331.23,139.755c-8.175-0.918-22.201-1.412-38.415,3.692
			c-20.032,6.307-32.902,17.855-38.922,24.045c-7.303-2.775-17.347-5.611-29.479-6.24c-24.538-1.271-43.419,7.226-52.472,12.109
			c-3.146-14.91-6.291-29.82-9.437-44.73l159.288-33.606L331.23,139.755z"/>
		<polygon style="fill:#8F96E3;" points="136.83,131.193 239.379,73.479 352.826,80.951 252.392,131.038 		"/>
		<path style="fill:#E09F26;" d="M146.619,191.496c0.635,9.349,2.337,18.626,5.063,27.591c1.67-2.178,4.429-3.303,7.158-3.587
			c2.73-0.284,5.476,0.174,8.182,0.631c-2.37-6.759-2.798-14.015-3.884-21.095c-1.086-7.08-2.995-14.35-7.71-19.744
			C147.559,166.291,146.344,187.449,146.619,191.496z"/>
		<path style="fill:#FABA41;" d="M152.84,156.917c0.096-4.631-0.544-9.13,0.446-13.656c0.99-4.525,2.729-9.729,5.944-13.063
			c3.213-3.332,8.447-4.757,12.66-6.674c14.539-6.618,29.344-12.652,44.367-18.082c5.553-2.007,11.202-3.965,16.115-7.239
			c0.809-0.539,1.696-1.464,1.267-2.336c-0.232-0.472-0.772-0.696-1.273-0.857c-7.314-2.357-9.981,0.182-16.917,3.488
			c-9.497,4.526-23.555,10.497-33.075,14.975c-8.141,3.829-16.848,6.577-24.378,11.501c-2.583,1.689-5.057,3.68-6.664,6.314
			c-1.203,1.971-1.468,4.359-2.431,6.458c-2.366,5.157,0.425,28.987,0.425,28.987c0.396,1.042,0.913,2.144,1.903,2.656
			c3.1,1.604,2.369-2.348,2.089-3.711C152.726,162.803,152.779,159.835,152.84,156.917z"/>
		
			<path style="fill:none;stroke:#FFB52B;stroke-width:1.5896;stroke-linecap:round;stroke-linejoin:round;stroke-miterlimit:10;" d="
			M152.88,216.446c-2.331-6.489-3.52-13.387-3.496-20.282"/>
		
			<path style="fill:none;stroke:#FFB52B;stroke-width:1.5896;stroke-linecap:round;stroke-linejoin:round;stroke-miterlimit:10;" d="
			M156.473,211.407c-2.161-7.464-3.464-15.176-3.873-22.935"/>
		
			<path style="fill:none;stroke:#FFB52B;stroke-width:1.5896;stroke-linecap:round;stroke-linejoin:round;stroke-miterlimit:10;" d="
			M160.619,211.897c-1.798-7.083-3.158-14.277-4.07-21.528"/>
		
			<path style="fill:none;stroke:#FFB52B;stroke-width:1.5896;stroke-linecap:round;stroke-linejoin:round;stroke-miterlimit:10;" d="
			M163.556,213.024c-1.066-5.256-2.132-10.511-3.199-15.767c-0.046-0.225-0.146-0.5-0.375-0.514"/>
		<path style="fill:#FABA41;" d="M158.262,170.316c0.732,3.472-1.488,6.88-4.96,7.613c-3.472,0.733-6.88-1.488-7.613-4.96
			c-0.732-3.472,1.488-6.88,4.96-7.613C154.122,164.624,157.53,166.844,158.262,170.316z"/>
	</g>
</g>
</svg>
