<!DOCTYPE svg PUBLIC "-//W3C//DTD SVG 1.1//EN" "http://www.w3.org/Graphics/SVG/1.1/DTD/svg11.dtd">
<!-- Uploaded to: SVG Repo, www.svgrepo.com, Transformed by: SVG Repo Mixer Tools -->
<svg fill="#1870b8" height="800px" width="800px" version="1.1" id="Layer_1" xmlns="http://www.w3.org/2000/svg" xmlns:xlink="http://www.w3.org/1999/xlink" viewBox="0 0 512 512" xml:space="preserve">
<g id="SVGRepo_bgCarrier" stroke-width="0"/>
<g id="SVGRepo_tracerCarrier" stroke-linecap="round" stroke-linejoin="round"/>
<g id="SVGRepo_iconCarrier"> <g> <g> <g> <path d="M290.792,179.769l43.985-35.504c3.305-2.669,3.049-7.804-0.521-10.106c-23.398-15.083-51.394-23.619-81.383-22.983 c-76.565,1.623-139.157,63.469-141.649,140.011c-2.725,83.637,65.866,152.261,149.492,149.593 c75.544-2.41,137.027-63.399,140.026-138.921c0.794-19.994-2.496-39.142-9.094-56.685c-1.495-3.975-6.461-5.306-9.767-2.639 l-44.021,35.533c-1.722,1.39-2.58,3.585-2.245,5.772c0.607,3.967,0.927,8.026,0.927,12.159c0,45.687-38.236,82.612-84.389,80.451 c-41.221-1.928-74.675-35.38-76.604-76.603c-2.16-46.154,34.764-84.391,80.451-84.391c10.099,0,19.766,1.878,28.68,5.29 C286.744,181.538,289.071,181.158,290.792,179.769z"/> <path d="M480.21,132.571c-1.876-3.394-6.374-4.26-9.391-1.824l-63.599,51.336c-2.195,1.773-2.936,4.798-1.785,7.374 c9.362,20.943,14.448,44.201,14.138,68.655c-1.139,89.856-73.711,161.476-163.574,161.476 c-91.418,0-165.562-75.378-163.547-167.244c1.906-86.861,72.328-157.597,159.18-159.874 c37.744-0.989,72.73,10.886,100.896,31.539c2.274,1.667,5.387,1.58,7.58-0.191l63.595-51.334 c3.016-2.435,3.122-7.016,0.199-9.561C378.024,22.974,317.835-0.943,252.148,0.029C114.195,2.068,1.96,114.391,0.026,252.345 C-2.04,399.597,120.903,519.217,269.311,511.66c133.517-6.798,239.847-116.572,242.632-250.233 C512.917,214.678,501.274,170.675,480.21,132.571z"/> <path d="M232.467,226.848l38.249-30.874c-4.72-1.158-9.646-1.785-14.717-1.785c-34.082,0-61.81,27.728-61.81,61.811 c0,34.083,27.728,61.811,61.81,61.811s61.81-27.728,61.81-61.811c0-0.574-0.027-1.141-0.044-1.711l-38.235,30.862 c-16.004,12.919-39.608,10.577-52.682-5.622C213.872,263.456,216.394,239.823,232.467,226.848z"/> <path d="M241.424,267.765c6.5,8.053,18.293,9.307,26.342,2.811L490.941,90.432c8.05-6.497,9.307-18.291,2.81-26.341 c-6.499-8.051-18.295-9.307-26.342-2.811L244.233,241.423C236.184,247.922,234.926,259.715,241.424,267.765z"/> </g> </g> </g> </g>
</svg>