<?xml version="1.0" encoding="utf-8"?>
<!-- Generator: Adobe Illustrator 27.5.0, SVG Export Plug-In . SVG Version: 6.00 Build 0)  -->
<svg version="1.1" xmlns="http://www.w3.org/2000/svg" xmlns:xlink="http://www.w3.org/1999/xlink" x="0px" y="0px"
	 viewBox="0 0 500 500" style="enable-background:new 0 0 500 500;" xml:space="preserve">
<g id="BACKGROUND">
	<rect style="fill:#FFFFFF;" width="500" height="500"/>
</g>
<g id="OBJECTS">
	
		<ellipse transform="matrix(0.7071 -0.7071 0.7071 0.7071 -102.6597 249.6298)" style="fill:#F7E6BE;" cx="250" cy="248.736" rx="187.017" ry="187.017"/>
	<g id="Strategy_Board">
		<g>
			<rect x="132.464" y="109.897" style="fill:#8C75D1;" width="251.431" height="149.406"/>
			<g>
				<path style="fill:#705EBF;" d="M385.605,261.013H130.753V108.186h254.852V261.013z M134.174,257.592h248.01V111.607h-248.01
					V257.592z"/>
			</g>
		</g>
		<g>
			<path style="fill:#6051B7;" d="M222.669,214.152c4.775-1.801,9.384-4.719,13.384-8.719c3.981-3.981,6.889-8.565,8.692-13.317
				l-38.707-16.643L222.669,214.152z"/>
			<g>
				<path style="fill:#705EBF;" d="M228.281,143.46c-0.553-0.553-1.124-1.08-1.702-1.591c-0.165-0.146-0.333-0.286-0.5-0.429
					c-0.445-0.38-0.896-0.749-1.354-1.105c-0.16-0.125-0.319-0.251-0.481-0.373c-1.253-0.943-2.549-1.801-3.883-2.568
					c-0.081-0.046-0.162-0.09-0.243-0.136c-0.623-0.352-1.253-0.686-1.891-0.999c-0.072-0.035-0.143-0.072-0.215-0.106
					c-2.178-1.054-4.435-1.892-6.74-2.507l-12.979,33.483l38.633,16.612C242.047,170.213,239.172,154.352,228.281,143.46z"/>
				<path style="fill:#6051B7;" d="M168.151,151.913c-8.048,14.439-5.948,33.014,6.32,45.282
					c10.891,10.891,26.753,13.766,40.28,8.646l-16.612-38.633L168.151,151.913z"/>
				<path style="fill:#8A7FD6;" d="M210.981,133.645c-0.285-0.076-0.569-0.157-0.855-0.226c-0.354-0.086-0.708-0.172-1.064-0.248
					c-0.554-0.117-1.11-0.215-1.668-0.307c-0.331-0.055-0.661-0.118-0.993-0.165c-0.745-0.103-1.492-0.18-2.241-0.239
					c-0.248-0.02-0.496-0.038-0.745-0.053c-0.764-0.045-1.53-0.071-2.295-0.07c-0.342,0-0.684,0.019-1.026,0.028
					c-0.553,0.015-1.106,0.035-1.658,0.075c-0.375,0.027-0.749,0.065-1.122,0.103c-0.524,0.053-1.047,0.115-1.569,0.19
					c-0.375,0.054-0.749,0.111-1.123,0.176c-0.533,0.093-1.064,0.202-1.593,0.318c-0.35,0.076-0.7,0.148-1.048,0.234
					c-0.611,0.152-1.216,0.327-1.82,0.51c-0.258,0.078-0.519,0.144-0.775,0.227c-0.847,0.276-1.686,0.582-2.516,0.919
					c-0.232,0.094-0.458,0.205-0.688,0.304c-0.607,0.261-1.212,0.53-1.808,0.825c-0.304,0.15-0.603,0.314-0.903,0.473
					c-0.517,0.273-1.03,0.554-1.536,0.852c-0.311,0.183-0.618,0.373-0.924,0.565c-0.494,0.31-0.981,0.635-1.463,0.97
					c-0.292,0.203-0.583,0.404-0.87,0.616c-0.511,0.378-1.012,0.776-1.508,1.183c-0.238,0.195-0.48,0.381-0.715,0.582
					c-0.72,0.62-1.427,1.265-2.11,1.948c-0.58,0.58-1.13,1.178-1.663,1.785c-0.125,0.142-0.247,0.287-0.37,0.431
					c-0.468,0.549-0.921,1.106-1.353,1.674c-0.047,0.062-0.096,0.122-0.143,0.184c-1.035,1.382-1.966,2.818-2.791,4.298
					c0,0.001,0,0.001-0.001,0.001l29.988,15.295L210.981,133.645z"/>
			</g>
		</g>
		<g>
			<rect x="291.631" y="184.271" style="fill:#6051B7;" width="13.601" height="51.252"/>
			<rect x="306.791" y="177.37" style="fill:#6051B7;" width="13.601" height="58.229"/>
			<rect x="321.931" y="171.293" style="fill:#6051B7;" width="13.601" height="64.306"/>
			<rect x="336.969" y="160.446" style="fill:#6051B7;" width="13.601" height="75.153"/>
		</g>
		<g>
			<path style="fill:#6051B7;" d="M299.263,124.224c-0.006,2.844,0.744,6.798,2.457,9.397
				c-19.059,1.717-26.161,15.634-26.462,16.242l2.044,1.011c0.067-0.136,6.713-13.159,24.228-14.943
				c-1.8,2.542-2.574,6.038-2.905,9.013c3.583-4.141,7.765-8.075,12.963-9.972C306.521,132.67,302.394,128.712,299.263,124.224z"/>
			<g>
				<path style="fill:#6051B7;" d="M271.153,160.973c-2.893,0-5.246-2.353-5.246-5.245s2.353-5.246,5.246-5.246
					c2.892,0,5.245,2.354,5.245,5.246S274.045,160.973,271.153,160.973z M271.153,152.762c-1.635,0-2.965,1.33-2.965,2.965
					c0,1.635,1.331,2.965,2.965,2.965c1.635,0,2.964-1.33,2.964-2.965C274.118,154.093,272.788,152.762,271.153,152.762z"/>
			</g>
			<polygon style="fill:#6051B7;" points="326.754,138.725 322.712,134.984 326.454,130.941 324.779,129.392 321.038,133.434 
				316.996,129.693 315.446,131.367 319.488,135.108 315.746,139.151 317.421,140.7 321.162,136.658 325.204,140.399 			"/>
		</g>
		<g>
			<path style="fill:#6051B7;" d="M211.042,244.975c1.121-2.614,1.981-6.546,1.425-9.608c18.206,5.894,30.196-4.124,30.711-4.566
				l-1.484-1.732c-0.115,0.099-11.335,9.473-28.147,4.245c2.653-1.632,4.736-4.545,6.206-7.152c-4.92,2.405-10.31,4.383-15.835,4.09
				C207.677,234.36,209.921,239.619,211.042,244.975z"/>
			<g>
				<path style="fill:#6051B7;" d="M249.112,228.349c-0.11,0-0.219-0.004-0.331-0.01c-2.887-0.181-5.088-2.677-4.907-5.564
					c0.088-1.399,0.715-2.679,1.766-3.606c1.051-0.927,2.403-1.391,3.798-1.301c2.887,0.181,5.089,2.677,4.908,5.564
					C254.171,226.207,251.856,228.349,249.112,228.349z M249.105,220.137c-0.722,0-1.411,0.26-1.957,0.742
					c-0.594,0.524-0.948,1.248-0.998,2.038l0,0c-0.103,1.632,1.142,3.043,2.773,3.145c1.642,0.095,3.043-1.143,3.145-2.774
					c0.049-0.791-0.212-1.553-0.735-2.148c-0.524-0.594-1.248-0.948-2.038-0.998C249.231,220.139,249.168,220.137,249.105,220.137z"
					/>
			</g>
			<polygon style="fill:#6051B7;" points="189.182,223.48 192.982,227.468 188.995,231.268 190.569,232.919 194.556,229.119 
				198.356,233.106 200.008,231.532 196.208,227.545 200.195,223.745 198.62,222.094 194.634,225.894 190.834,221.907 			"/>
			<g>
				<path style="fill:#6051B7;" d="M256.676,218.997l-1.324-1.856c12.601-8.988,7.344-28.905,7.29-29.105l2.2-0.602
					C265.082,188.313,270.579,209.081,256.676,218.997z"/>
			</g>
		</g>
	</g>
	<g id="Business_Woman">
		<path style="fill:#B57261;" d="M118.292,157.536c-7.992-3.749-18.389-0.75-23.227,5.809c-4.598,6.233-2.843,13.305-2.596,14.277
			c1.904,7.515,8.963,11.191,8.963,11.191s8.885,7.764,11.838,8.229c1.075,0.304,4.344,1.081,7.694-0.415
			c4.034-1.802,6.539-6.166,6.284-11.02c-1.514,0.344-2.993-0.023-3.789-0.981c-0.393-0.473-0.539-0.993-0.594-1.374
			c3.37,1.108,4.984-0.889,4.984-0.889l-0.048-6.513c0.162-1.2,0.257-2.708,0.109-4.434c-0.161-1.883-0.561-3.473-0.967-4.694
			C126.243,165.089,123.871,160.152,118.292,157.536z"/>
		<path style="fill:#2D171B;" d="M121.525,176.538c-0.027,1.424-0.606,2.568-1.293,2.556c-0.687-0.012-1.222-1.176-1.195-2.599
			c0.027-1.424,0.606-2.568,1.293-2.556C121.018,173.95,121.553,175.114,121.525,176.538z"/>
		<path style="fill:#2D171B;" d="M122.357,170.515c0,0-3.903-1.995-7.743,3.439C114.615,173.954,121.424,170.197,122.357,170.515z"
			/>
		<path style="fill:#A35D4F;" d="M103.904,182.593c0,0-0.011-2.775-2.738-2.787C98.439,179.795,102.065,180.631,103.904,182.593z"/>
		<g>
			<path style="fill:#B57261;" d="M106.108,190.355l-0.418,14.227c2.613,2.443,11.284,0.08,11.284,0.08l-0.554-2.881
				C109.313,201.168,106.108,190.355,106.108,190.355z"/>
			<polygon style="fill:#A35D4F;" points="115.591,197.466 116.42,201.781 116.42,201.781 			"/>
			<path style="fill:#A35D4F;" d="M106.108,190.355c0,0,3.205,10.813,10.313,11.426l-0.83-4.316L106.108,190.355z"/>
		</g>
		<g>
			<path style="fill:#A35D4F;" d="M109.036,299.327l3.315,113.212h38.06c0,0-8.992-7.047-25.183-10.958l11.093-102.254H109.036z"/>
			<path style="fill:#EDB940;" d="M145.545,409.513c-7.727-0.241-25.351-0.772-32.178-0.816l0.133,4.555h38.06
				C151.56,413.251,149.475,411.628,145.545,409.513z"/>
			<path style="fill:#B57261;" d="M95.073,303.813l3.315,113.212h38.06c0,0-8.992-7.047-25.183-10.958l11.093-102.254H95.073z"/>
			<path style="fill:#EDB940;" d="M130.433,413.287c-7.727-0.241-25.352-0.772-32.178-0.816l0.133,4.554h38.06
				C136.447,417.025,134.363,415.402,130.433,413.287z"/>
		</g>
		<path style="fill:#A35D4F;" d="M129.724,205.434c0,0,19.78,14.249,24.496,14.484c4.716,0.236,23.109-14.228,23.109-14.228
			s2.122-7.566,5.895-8.224c0.789-0.364,2.126-1.106,3.346-2.511c1.349-1.553,1.89-3.152,2.115-4.013
			c0.543,0.294,1.238,0.792,1.555,1.605c0.494,1.27-0.392,2.239-0.649,3.522c-0.681,3.399,3.816,4.957,3.505,8.404
			c-0.222,2.454-2.741,4.312-4.175,5.369c-1.611,1.187-4.282,2.532-4.282,2.532l0,0c-2.429,3.867-6.486,9.511-12.734,15.092
			c-5.673,5.068-10.049,8.977-15.799,9.904c-13.498,2.177-25.277-13.573-26.383-15.092
			C129.724,216.662,129.724,211.048,129.724,205.434z"/>
		<path style="fill:#2D171B;" d="M122.511,158.718c0,0-13.465-7.783-29.978,0.652c-9.415,4.809-12.36,16.816-11.257,26.296
			l26.069,13.024l0.573-10.133c-0.837-0.405-2.262-0.722-4.611-0.36c-4.672,0.72-6.803-7.177-4.23-10.141
			c2.573-2.964,9.18,4.519,9.18,4.519l0.643-11.369c0,0,8.066,1.369,7.1-5.153C116,166.052,133.115,165.792,122.511,158.718z"/>
		<path style="fill:#FF669E;" d="M105.773,201.781l-15.101,6.17c1.901,1.573,3.992,3.85,5.349,7.004
			c4.89,11.362-4.412,23.251-4.902,23.859c3.022,5.145,6.044,10.29,9.066,15.436c0,0-12.143,35.512-12.143,69.71
			c0,0,25.516,12.89,53.926,0l-8.155-66.29c1.711-8.515,2.961-15.734,3.847-21.215c1.398-8.651,1.646-11.484,1.069-14.991
			c-1.204-7.309-5.188-12.639-8.073-15.773c-4.745-1.303-9.49-2.605-14.235-3.908C116.42,201.781,111.731,208.636,105.773,201.781z"
			/>
		<path style="fill:#B57261;" d="M90.711,207.942c-0.441,0.056-1.079,0.176-1.793,0.463c-4.376,1.757-5.659,7.39-7.031,11.764
			c-4.478,14.277-7.057,16.005-8.104,16.698c-2.143,1.417-4.135,1.647-8.055,2.1c-6.893,0.796-12.707-0.972-14.703-2.8
			c-0.732-0.671-2.908-2.705-2.181-2.029l0,0c0,0-3.789-3.476-6.864-3.679c-3.074-0.203-4.883-3.042-4.883-3.042
			s-3.798,2.434,3.707,6.998l-2.984,0.608c0,0-7.233-8.925-11.845-6.795c-4.611,2.13,10.217,16.126,10.217,16.126l9.584,0.71
			c0,0,23.237,12.272,31.465,9.534c8.228-2.738,19.982-23.834,19.982-23.834S102.46,213.316,90.711,207.942z"/>
		<path style="fill:#2D171B;" d="M167.231,212.59l55.501-40.927c0,0,2.713-1.378,1.48,1.398
			c-1.233,2.775-55.008,42.243-55.008,42.243L167.231,212.59z"/>
		<path style="fill:#B57261;" d="M193.237,204.52c0.302-2.166,0.603-4.332,0.905-6.498l-4.551-1.954c0,0-3.6,0.47-2.114,5.713
			s-2.838,10.591-2.838,10.591c1.593-0.84,2.884-1.616,3.824-2.208c2.626-1.656,3.275-2.368,3.726-3.05
			C192.844,206.124,193.113,205.152,193.237,204.52z"/>
		<path style="fill:#A35D4F;" d="M189.503,196.425l3.165,1.877l0.699,2.907C193.366,201.208,193.237,198.927,189.503,196.425z"/>
		<path style="fill:#A35D4F;" d="M188.564,196.995l2.41,2.539l1.067,2.944C192.041,202.478,190.956,199.681,188.564,196.995z"/>
		<polygon style="fill:#A35D4F;" points="187.626,197.639 189.391,200.564 189.815,203.618 		"/>
		<path style="fill:#A35D4F;" d="M26.787,231.092l6.388,6.481l5.399,0.897C38.574,238.47,33.175,237.301,26.787,231.092z"/>
		<polygon style="fill:#A35D4F;" points="26.787,229.138 34.165,235.256 38.934,236.606 		"/>
		<path style="fill:#A35D4F;" d="M38.574,238.47c0,0,4.589-0.54,6.208,0.9L38.574,238.47z"/>
	</g>
	<g id="Business_Man">
		<path style="fill:#6D8E42;" d="M264.002,403.528h-1.181c-1.172,0-2.122-0.95-2.122-2.122V286.861h5.425v114.544
			C266.125,402.578,265.174,403.528,264.002,403.528z"/>
		<path style="fill:#211114;" d="M421.384,329.372c0,0-8.801,37.455-40.81,32.816c-32.009-4.639-32.009-4.639-32.009-4.639
			l30.439,57.323c-16.742-0.048-33.484-0.095-50.227-0.143c2.394-1.746,5.948-3.986,10.62-5.715
			c7.078-2.619,9.811-1.508,11.108-2.953c6.128-6.829-43.627-44.277-37.509-65.08c3.145-10.693,21.939-20.03,79.714-20.914
			c2.921,2.239,7.818,5.42,14.612,7.434C412.989,329.181,417.957,329.449,421.384,329.372z"/>
		<path style="fill:#2D171B;" d="M432.325,337.335c0.645,5.929,0.782,16.151-5.823,22.068c-5.949,5.329-13.831,3.909-31.575,3.741
			c-8.515-0.081-20.326,0.128-34.607,1.42c9.875,19.424,19.75,38.847,29.625,58.271c-16.742-0.047-33.485-0.095-50.227-0.143
			c2.394-1.746,5.948-3.986,10.62-5.715c7.078-2.619,9.811-1.508,11.108-2.953c3.7-4.124-43.482-43.398-37.509-65.08
			c2.951-10.713,20.063-21.033,74.711-24.152c3.548,3.117,10.094,8.001,19.615,10.671
			C423.745,337.002,428.632,337.362,432.325,337.335z"/>
		<path style="fill:#5B3437;" d="M387.741,206.252c0.159-2.252,0.595-4.157,1.041-5.621c0.777-1.96,3.415-7.887,9.738-11.083
			c9.058-4.577,20.941-1.122,26.537,6.657c5.318,7.392,3.409,15.865,3.141,17.029c-2.073,9.003-10.068,13.483-10.068,13.483v19.811
			c-1.783,0.579-4.474,1.229-7.786,1.204c-3.133-0.023-5.689-0.641-7.424-1.204c0-3.137,0-6.275,0-9.413
			c-1.751,0.291-4.307,0.378-6.942-0.822c-4.619-2.104-7.529-7.288-7.301-13.091c1.729,0.392,3.409-0.065,4.304-1.219
			c0.442-0.57,0.601-1.193,0.659-1.649c-3.825,1.365-5.69-1.001-5.69-1.001l-0.029-7.784
			C387.723,210.118,387.596,208.317,387.741,206.252z"/>
		<path style="fill:#2D171B;" d="M395.08,212.253c0,1.702,0.651,3.081,1.455,3.081c0.804,0,1.455-1.38,1.455-3.081
			c0-1.702-0.651-3.081-1.455-3.081C395.732,209.172,395.08,210.551,395.08,212.253z"/>
		<path style="fill:#FFFFFF;" d="M402.921,246.989c0,0-11.076-1.221-17.899,16.99c-6.823,18.212-8.152,39.781-8.152,39.781h18.11
			C394.98,303.761,412.514,249.757,402.921,246.989z"/>
		<path style="fill:#49282C;" d="M415.795,217.72c-0.162,0.624,0.623-4.309,3.523-3.894
			C422.218,214.24,416.332,215.649,415.795,217.72z"/>
		<path style="fill:#49282C;" d="M418.131,226.718c0,0-6.512,9.161-15.21,10.398v3.359
			C402.921,240.475,414.131,244.44,418.131,226.718z"/>
		<path style="fill:#F7F7F7;" d="M392.244,319.9c0.147-2.549,0.294-5.099,0.44-7.648c-1.281-7.469-2.352-14.117-3.228-19.755
			c-1.815-11.685-2.048-14.267-1.549-18.077c0.591-4.518,1.858-7.962,4.39-14.849c0.405-1.1,1.549-4.153,3.874-7.618
			c3.571-5.322,5.884-5.59,6.58-5.619c1.115-0.046,1.262,0.391,2.717,0.712c3.562,0.786,8.099-0.55,10.717-3.745
			c0.575-0.702,1.441-1.962,1.947-3.888c11.421,6.344,16.617,13.586,19.111,19.719c4.893,12.032,0.196,22.051-2.758,45.629
			c-1.794,14.318-2.144,25.975-2.19,33.121C431.918,337.917,413.775,339.392,392.244,319.9z"/>
		<g>
			<g>
				<path style="fill:#E04E4E;" d="M433.938,425.497h5.138c0.404,0,0.731-0.328,0.731-0.732v-174.42h-6.6v174.42
					C433.206,425.169,433.534,425.497,433.938,425.497z"/>
				
					<rect x="363.633" y="362.919" transform="matrix(-1 -1.224647e-16 1.224647e-16 -1 796.8394 734.682)" style="fill:#E04E4E;" width="69.573" height="8.844"/>
			</g>
			<path style="fill:#E04E4E;" d="M364.365,426.55h5.138c0.404,0,0.731-0.327,0.731-0.731v-60.213h-6.6v60.213
				C363.633,426.223,363.961,426.55,364.365,426.55z"/>
		</g>
		<g>
			<rect x="237.35" y="318.684" style="fill:#6D8E42;" width="163.971" height="10.741"/>
			<path style="fill:#6D8E42;" d="M240.653,446.092h-1.181c-1.172,0-2.122-0.95-2.122-2.122V329.425h5.425V443.97
				C242.775,445.142,241.825,446.092,240.653,446.092z"/>
			<path style="fill:#6D8E42;" d="M399.199,446.092h-1.18c-1.172,0-2.122-0.95-2.122-2.122V329.425h5.425V443.97
				C401.321,445.142,400.371,446.092,399.199,446.092z"/>
		</g>
		<path style="fill:#87AB5E;" d="M401.321,318.684c-54.657,0-109.314,0-163.971,0c7.415-10.611,14.829-21.223,22.244-31.834
			c40.13,0.195,80.261,0.39,120.391,0.585C387.097,297.851,394.209,308.268,401.321,318.684z"/>
		<path style="fill:#8DC0D1;" d="M402.988,246.376l-6.763,6.761l0.628,2.008c-1.774,4.553-3.508,9.25-5.167,14.13
			c-3.257,9.585-5.908,18.793-8.069,27.538l2.558,5.794l3.873-4.192c1.728-8.297,3.586-16.72,5.583-25.262
			c1.319-5.644,2.671-11.217,4.052-16.723l2.661-0.982L402.988,246.376z"/>
		<g>
			<path style="fill:#FFFFFF;" d="M402.75,245.939l0.175,10.911c0,0,19.882-5.409,20.656-14.868l-5.112-3.223
				C418.468,238.758,413.818,246.639,402.75,245.939z"/>
			<path style="fill:#FFFFFF;" d="M402.921,246.989l-7.941,6.869c0,0,2.538-6.912,7.77-7.919L402.921,246.989z"/>
		</g>
		<g>
			<path style="fill:#5B3437;" d="M343.963,290.251l-15.895,1.229c0,0-15.72,5.884-13.7,7.991c2.02,2.108,12.734-0.176,13.348,0
				c0.214,0.061,2.279,0.24,5.03,0.372c-1.078,0.932-3.364,2.86-4.346,3.313c-1.307,0.603-1.006,2.917-1.006,2.917
				s5.833-2.514,9.353-2.816c2.404-0.206,7.058-2.424,9.77-3.81c0.524-0.116,0.968-0.253,1.308-0.414
				C351.515,297.276,343.963,290.251,343.963,290.251z"/>
			<path style="fill:#FFFFFF;" d="M367.292,285.07l-26.733,4.784c0,0,5.27,5.63,5.168,10.694l38.167,1.406L367.292,285.07z"/>
			<path style="fill:#49282C;" d="M330.105,295.114l-4.327,0.38l-8.132,3.947C317.647,299.441,325.778,296.065,330.105,295.114z"/>
			<polygon style="fill:#49282C;" points="327.918,293.117 323.591,293.925 316.077,298.162 			"/>
		</g>
		<g>
			<g>
				<path style="fill:#5B3437;" d="M355.14,237.386c-1.508-2.628-2.438-4.847-3.021-6.444c-0.494-1.355-1.018-3.025-1.767-3.028
					c-0.49-0.002-0.861,0.713-0.997,0.976c-1.407,2.716,2.304,10.503,3.455,12.831L355.14,237.386z"/>
				<path style="fill:#5B3437;" d="M354.868,236.952c-0.215-0.037-0.451-0.051-0.71-0.015c-1.099,0.151-1.649,1.015-1.721,1.133
					c-0.153-0.071-0.984-0.436-1.925-0.07c-0.724,0.283-1.089,0.834-1.201,1.021c-0.278-0.069-0.744-0.146-1.302-0.045
					c-0.869,0.157-1.427,0.648-1.642,0.861c-0.249-0.024-0.665-0.03-1.133,0.136c-0.273,0.097-1.004,0.355-1.314,1.087
					c-0.103,0.244-0.132,0.478-0.131,0.681l-0.003-0.019v4.974l1.168,2.755c0.003,0.019,0.006,0.037,0.009,0.055
					c0.023,0.068,0.063,0.124,0.094,0.187l0.029,0.068l-0.003-0.016c0.227,0.407,0.62,0.679,1.056,0.693
					c0.544,0.017,0.904-0.364,0.962-0.427c0.27,0.806,1.929,5.561,5.879,7.811c0,0,1.788,1.019,4.487,1.408
					c1.111,0.16,1.864,0.051,2.499-0.229c0,0,0.157-0.069,0.314-0.157c1.353-0.758,3.144-5.084,3.391-5.688
					C360.737,247.753,357.802,242.352,354.868,236.952z"/>
				<path style="fill:#49282C;" d="M344.986,242.732l2.116,7.277C347.102,250.009,346.892,245.959,344.986,242.732z"/>
			</g>
			<path style="fill:#FFFFFF;" d="M427.087,246.379c0,0-8.566-0.452-14.63,9.878c-6.064,10.329-19.232,30.486-22.054,31.155
				c-2.822,0.669-27.278-35.917-27.278-35.917l-10.817,6.445c0,0,22.078,49.579,34.492,54.952
				c12.414,5.373,43.106-28.542,43.106-28.542S442.739,257.103,427.087,246.379z"/>
		</g>
		<path style="fill:#2D171B;" d="M421.908,214.049c-0.221-0.384-2.022-3.507-4.725-3.169c-1.819,0.227-3.423,1.944-3.887,4.289
			c-8.21-1.729-7.545-19.683-7.545-19.683c-5.905,3.126-11.553,0.974-13.949-0.255c1.312-1.725,3.041-3.45,5.32-4.838
			c8.413-5.125,20.383-3.296,26.92,4.284c5.925,6.871,4.772,15.448,4.608,16.627c-1.269,9.117-8.812,14.263-8.812,14.263
			C422.788,221.619,423.692,217.143,421.908,214.049z"/>
		<path style="fill:#2D171B;" d="M394.053,206.227c0,0,4.175-2.8,9.15,3.209C403.203,209.435,395.07,205.746,394.053,206.227z"/>
		<path style="fill:#F2EBEB;" d="M398.42,248.109"/>
	</g>
</g>
</svg>
